<svg version="1.1" xmlns="http://www.w3.org/2000/svg" viewBox="0 0 183 150.7798002192099" width="183" height="150.7798002192099">
  <!-- svg-source:excalidraw -->
  
  <defs>
    <style class="style-fonts">
      @font-face {
        font-family: "Virgil";
        src: url("https://excalidraw.com/Virgil.woff2");
      }
      @font-face {
        font-family: "Cascadia";
        src: url("https://excalidraw.com/Cascadia.woff2");
      }
    </style>
  </defs>
  <g stroke-linecap="round"><g transform="translate(19 109.7798002192099) rotate(0 60 0)"><path d="M0 0 C20 0, 100 0, 120 0 M0 0 C20 0, 100 0, 120 0" stroke="#000000" stroke-width="1" fill="none"></path></g><g transform="translate(19 109.7798002192099) rotate(0 60 0)"><path d="M120 0 L106.41 6.34 L106.41 -6.34 L120 0" stroke="none" stroke-width="0" fill="#000000" fill-rule="evenodd"></path><path d="M120 0 C117.12 1.34, 114.24 2.69, 106.41 6.34 M120 0 C116.42 1.67, 112.83 3.34, 106.41 6.34 M106.41 6.34 C106.41 2.3, 106.41 -1.73, 106.41 -6.34 M106.41 6.34 C106.41 3.62, 106.41 0.89, 106.41 -6.34 M106.41 -6.34 C110.93 -4.23, 115.45 -2.12, 120 0 M106.41 -6.34 C110.71 -4.33, 115.01 -2.33, 120 0 M120 0 C120 0, 120 0, 120 0 M120 0 C120 0, 120 0, 120 0" stroke="#000000" stroke-width="1" fill="none"></path></g></g><mask></mask><g stroke-linecap="round"><g transform="translate(18 108.7798002192099) rotate(0 29.72659698893426 -49.38990010960495)"><path d="M0 0 C9.91 -16.46, 49.54 -82.32, 59.45 -98.78 M0 0 C9.91 -16.46, 49.54 -82.32, 59.45 -98.78" stroke="#000000" stroke-width="1" fill="none"></path></g><g transform="translate(18 108.7798002192099) rotate(0 29.72659698893426 -49.38990010960495)"><path d="M59.45 -98.78 L57.87 -83.86 L47.01 -90.4 L59.45 -98.78" stroke="none" stroke-width="0" fill="#000000" fill-rule="evenodd"></path><path d="M59.45 -98.78 C59.04 -94.89, 58.63 -91.01, 57.87 -83.86 M59.45 -98.78 C59.13 -95.74, 58.81 -92.7, 57.87 -83.86 M57.87 -83.86 C55.49 -85.3, 53.11 -86.73, 47.01 -90.4 M57.87 -83.86 C54.86 -85.68, 51.85 -87.49, 47.01 -90.4 M47.01 -90.4 C51.48 -93.41, 55.95 -96.42, 59.45 -98.78 M47.01 -90.4 C51.39 -93.35, 55.76 -96.29, 59.45 -98.78 M59.45 -98.78 C59.45 -98.78, 59.45 -98.78, 59.45 -98.78 M59.45 -98.78 C59.45 -98.78, 59.45 -98.78, 59.45 -98.78" stroke="#000000" stroke-width="1" fill="none"></path></g></g><mask></mask><g transform="translate(10 48.2798002192099) rotate(0 7 10.5)"><text x="0" y="16" font-family="Helvetica, Segoe UI Emoji" font-size="20px" fill="#000000" text-anchor="start" style="white-space: pre;" direction="ltr">A</text></g><g transform="translate(65 119.7798002192099) rotate(0 7 10.5)"><text x="0" y="16" font-family="Helvetica, Segoe UI Emoji" font-size="20px" fill="#000000" text-anchor="start" style="white-space: pre;" direction="ltr">B</text></g><g stroke-linecap="round"><g transform="translate(139 108.7798002192099) rotate(0 -31 -49)"><path d="M0 0 C-10.33 -16.33, -51.67 -81.67, -62 -98 M0 0 C-10.33 -16.33, -51.67 -81.67, -62 -98" stroke="#000000" stroke-width="1" fill="none"></path></g><g transform="translate(139 108.7798002192099) rotate(0 -31 -49)"><path d="M-62 -98 L-49.37 -89.9 L-60.09 -83.12 L-62 -98" stroke="none" stroke-width="0" fill="#000000" fill-rule="evenodd"></path><path d="M-62 -98 C-59.03 -96.09, -56.05 -94.19, -49.37 -89.9 M-62 -98 C-57.14 -94.88, -52.29 -91.77, -49.37 -89.9 M-49.37 -89.9 C-51.89 -88.31, -54.4 -86.72, -60.09 -83.12 M-49.37 -89.9 C-52 -88.24, -54.63 -86.58, -60.09 -83.12 M-60.09 -83.12 C-60.58 -86.91, -61.06 -90.69, -62 -98 M-60.09 -83.12 C-60.66 -87.59, -61.24 -92.06, -62 -98 M-62 -98 C-62 -98, -62 -98, -62 -98 M-62 -98 C-62 -98, -62 -98, -62 -98" stroke="#000000" stroke-width="1" fill="none"></path></g></g><mask></mask><g transform="translate(128 49.7798002192099) rotate(0 22.5 10.5)"><text x="0" y="16" font-family="Helvetica, Segoe UI Emoji" font-size="20px" fill="#000000" text-anchor="start" style="white-space: pre;" direction="ltr">A - B</text></g><g transform="translate(42 83.7798002192099) rotate(0 6.5 10.5)"><text x="0" y="16" font-family="Helvetica, Segoe UI Emoji" font-size="20px" fill="#000000" text-anchor="start" style="white-space: pre;" direction="ltr">θ</text></g><g stroke-linecap="round"><g transform="translate(26 92.7798002192099) rotate(0 4.833333333333314 7.5)"><path d="M0 0 C1.5 0.83, 7.5 2.5, 9 5 C10.5 7.5, 9 13.33, 9 15 M0 0 C1.5 0.83, 7.5 2.5, 9 5 C10.5 7.5, 9 13.33, 9 15" stroke="#000000" stroke-width="1" fill="none"></path></g></g><mask></mask></svg>